<mxfile host="Electron" agent="Mozilla/5.0 (Windows NT 10.0; Win64; x64) AppleWebKit/537.36 (KHTML, like Gecko) draw.io/24.7.17 Chrome/128.0.6613.36 Electron/32.0.1 Safari/537.36" version="24.7.17">
  <diagram name="Page-1" id="-nNL3x_HkS6G_0WlTCEB">
    <mxGraphModel dx="1098" dy="828" grid="1" gridSize="10" guides="1" tooltips="1" connect="1" arrows="1" fold="1" page="1" pageScale="1" pageWidth="850" pageHeight="1100" math="0" shadow="0">
      <root>
        <mxCell id="0" />
        <mxCell id="1" parent="0" />
        <mxCell id="ax09L2KxbLYmeylVYB9i-5" style="edgeStyle=orthogonalEdgeStyle;rounded=0;orthogonalLoop=1;jettySize=auto;html=1;exitX=0.5;exitY=1;exitDx=0;exitDy=0;entryX=0.5;entryY=0;entryDx=0;entryDy=0;" parent="1" source="ax09L2KxbLYmeylVYB9i-1" target="ax09L2KxbLYmeylVYB9i-3" edge="1">
          <mxGeometry relative="1" as="geometry" />
        </mxCell>
        <mxCell id="ax09L2KxbLYmeylVYB9i-1" value="Start" style="rounded=1;whiteSpace=wrap;html=1;" parent="1" vertex="1">
          <mxGeometry x="440" y="176" width="120" height="62" as="geometry" />
        </mxCell>
        <mxCell id="ax09L2KxbLYmeylVYB9i-2" value="End" style="rounded=1;whiteSpace=wrap;html=1;" parent="1" vertex="1">
          <mxGeometry x="440" y="816" width="120" height="62" as="geometry" />
        </mxCell>
        <mxCell id="ax09L2KxbLYmeylVYB9i-6" style="edgeStyle=orthogonalEdgeStyle;rounded=0;orthogonalLoop=1;jettySize=auto;html=1;exitX=0.5;exitY=1;exitDx=0;exitDy=0;entryX=0.5;entryY=0;entryDx=0;entryDy=0;" parent="1" source="ax09L2KxbLYmeylVYB9i-3" target="ax09L2KxbLYmeylVYB9i-4" edge="1">
          <mxGeometry relative="1" as="geometry" />
        </mxCell>
        <mxCell id="ax09L2KxbLYmeylVYB9i-3" value="A&lt;div&gt;B&lt;/div&gt;" style="rounded=0;whiteSpace=wrap;html=1;" parent="1" vertex="1">
          <mxGeometry x="440" y="296" width="120" height="62" as="geometry" />
        </mxCell>
        <mxCell id="ax09L2KxbLYmeylVYB9i-8" style="edgeStyle=orthogonalEdgeStyle;rounded=0;orthogonalLoop=1;jettySize=auto;html=1;exitX=1;exitY=0.5;exitDx=0;exitDy=0;entryX=0.5;entryY=0;entryDx=0;entryDy=0;" parent="1" source="ax09L2KxbLYmeylVYB9i-4" target="ax09L2KxbLYmeylVYB9i-7" edge="1">
          <mxGeometry relative="1" as="geometry" />
        </mxCell>
        <mxCell id="ax09L2KxbLYmeylVYB9i-15" style="edgeStyle=orthogonalEdgeStyle;rounded=0;orthogonalLoop=1;jettySize=auto;html=1;entryX=0.5;entryY=0;entryDx=0;entryDy=0;" parent="1" source="ax09L2KxbLYmeylVYB9i-4" target="ax09L2KxbLYmeylVYB9i-14" edge="1">
          <mxGeometry relative="1" as="geometry" />
        </mxCell>
        <mxCell id="ax09L2KxbLYmeylVYB9i-4" value="A &amp;gt; B" style="rhombus;whiteSpace=wrap;html=1;" parent="1" vertex="1">
          <mxGeometry x="440" y="426" width="120" height="122" as="geometry" />
        </mxCell>
        <mxCell id="ax09L2KxbLYmeylVYB9i-22" style="edgeStyle=orthogonalEdgeStyle;rounded=0;orthogonalLoop=1;jettySize=auto;html=1;exitX=0.5;exitY=1;exitDx=0;exitDy=0;entryX=1;entryY=0.5;entryDx=0;entryDy=0;" parent="1" source="ax09L2KxbLYmeylVYB9i-7" target="ax09L2KxbLYmeylVYB9i-2" edge="1">
          <mxGeometry relative="1" as="geometry" />
        </mxCell>
        <mxCell id="ax09L2KxbLYmeylVYB9i-7" value="B = B + 10" style="rounded=0;whiteSpace=wrap;html=1;" parent="1" vertex="1">
          <mxGeometry x="600" y="556" width="120" height="62" as="geometry" />
        </mxCell>
        <mxCell id="ax09L2KxbLYmeylVYB9i-9" value="True" style="text;html=1;align=center;verticalAlign=middle;whiteSpace=wrap;rounded=0;" parent="1" vertex="1">
          <mxGeometry x="600" y="456" width="60" height="32" as="geometry" />
        </mxCell>
        <mxCell id="ax09L2KxbLYmeylVYB9i-21" style="edgeStyle=orthogonalEdgeStyle;rounded=0;orthogonalLoop=1;jettySize=auto;html=1;exitX=0.5;exitY=1;exitDx=0;exitDy=0;entryX=0.5;entryY=0;entryDx=0;entryDy=0;" parent="1" source="ax09L2KxbLYmeylVYB9i-10" target="ax09L2KxbLYmeylVYB9i-2" edge="1">
          <mxGeometry relative="1" as="geometry" />
        </mxCell>
        <mxCell id="ax09L2KxbLYmeylVYB9i-10" value="A = A + 15" style="rounded=0;whiteSpace=wrap;html=1;" parent="1" vertex="1">
          <mxGeometry x="440" y="656" width="120" height="62" as="geometry" />
        </mxCell>
        <mxCell id="ax09L2KxbLYmeylVYB9i-12" value="False" style="text;html=1;align=center;verticalAlign=middle;whiteSpace=wrap;rounded=0;" parent="1" vertex="1">
          <mxGeometry x="340" y="456" width="60" height="32" as="geometry" />
        </mxCell>
        <mxCell id="ax09L2KxbLYmeylVYB9i-16" style="edgeStyle=orthogonalEdgeStyle;rounded=0;orthogonalLoop=1;jettySize=auto;html=1;exitX=1;exitY=0.5;exitDx=0;exitDy=0;entryX=0.5;entryY=0;entryDx=0;entryDy=0;" parent="1" source="ax09L2KxbLYmeylVYB9i-14" target="ax09L2KxbLYmeylVYB9i-10" edge="1">
          <mxGeometry relative="1" as="geometry" />
        </mxCell>
        <mxCell id="ax09L2KxbLYmeylVYB9i-19" style="edgeStyle=orthogonalEdgeStyle;rounded=0;orthogonalLoop=1;jettySize=auto;html=1;exitX=0;exitY=0.5;exitDx=0;exitDy=0;entryX=0.5;entryY=0;entryDx=0;entryDy=0;" parent="1" source="ax09L2KxbLYmeylVYB9i-14" target="ax09L2KxbLYmeylVYB9i-18" edge="1">
          <mxGeometry relative="1" as="geometry" />
        </mxCell>
        <mxCell id="ax09L2KxbLYmeylVYB9i-14" value="A &amp;lt; B" style="rhombus;whiteSpace=wrap;html=1;" parent="1" vertex="1">
          <mxGeometry x="280" y="526" width="120" height="122" as="geometry" />
        </mxCell>
        <mxCell id="ax09L2KxbLYmeylVYB9i-17" value="True" style="text;html=1;align=center;verticalAlign=middle;whiteSpace=wrap;rounded=0;" parent="1" vertex="1">
          <mxGeometry x="430" y="556" width="60" height="32" as="geometry" />
        </mxCell>
        <mxCell id="ax09L2KxbLYmeylVYB9i-23" style="edgeStyle=orthogonalEdgeStyle;rounded=0;orthogonalLoop=1;jettySize=auto;html=1;exitX=0.5;exitY=1;exitDx=0;exitDy=0;entryX=0;entryY=0.5;entryDx=0;entryDy=0;" parent="1" source="ax09L2KxbLYmeylVYB9i-18" target="ax09L2KxbLYmeylVYB9i-2" edge="1">
          <mxGeometry relative="1" as="geometry" />
        </mxCell>
        <mxCell id="ax09L2KxbLYmeylVYB9i-18" value="A = A + 5&lt;div&gt;B = B + 5&lt;/div&gt;" style="rounded=0;whiteSpace=wrap;html=1;" parent="1" vertex="1">
          <mxGeometry x="120" y="656" width="120" height="62" as="geometry" />
        </mxCell>
        <mxCell id="ax09L2KxbLYmeylVYB9i-20" value="False" style="text;html=1;align=center;verticalAlign=middle;whiteSpace=wrap;rounded=0;" parent="1" vertex="1">
          <mxGeometry x="180" y="556" width="60" height="32" as="geometry" />
        </mxCell>
      </root>
    </mxGraphModel>
  </diagram>
</mxfile>
